# xmcd
#
# Track frame offsets:
#	150
#	17980
#	33982
#	48366
#	62793
#	82437
#	101062
#	132464
#	149107
#	172809
#	199114
#	218472
#	244660
#	263854
#	280702
#	299939
#	316537
#
# Disc length: 4458 seconds
#
# Revision: 8
# Processed by: cddbd v1.5.2PL0 Copyright (c) Steve Scherf et al.
# Submitted via: Jack! The Knife 20 Magnifico
#
DISCID=09116811
DTITLE=Bonnie Tyler - Gold
DYEAR=2013
DGENRE=Pop
TTITLE0=Lost In France
TTITLE1=It's A Heartache
TTITLE2=Heaven
TTITLE3=Goodbye To The Island
TTITLE4=I Believe In Your Sweet Love
TTITLE5=Have You Ever Seen The Rain
TTITLE6=Total Eclipse Of The Heart
TTITLE7=Straight From The Heart
TTITLE8=If You Were A Woman (And I Was A Man)
TTITLE9=Holding Out For A Hero
TTITLE10=Don't Turn Around
TTITLE11=To Love Somebody
TTITLE12=The Best
TTITLE13=He's The King
TTITLE14=Making Love (Out Of Nothing At All)
TTITLE15=Louise
TTITLE16=Believe In Me
EXTD=
EXTT0=
EXTT1=
EXTT2=
EXTT3=
EXTT4=
EXTT5=
EXTT6=
EXTT7=
EXTT8=
EXTT9=
EXTT10=
EXTT11=
EXTT12=
EXTT13=
EXTT14=
EXTT15=
EXTT16=
PLAYORDER=
